<!-- PolkaDeploy Architecture Diagram for GitHub README -->
<svg width="1000" height="800" xmlns="http://www.w3.org/2000/svg">
  <!-- Background -->
  <rect width="1000" height="800" fill="#f8f9fa" />
  
  <!-- Title -->
  <text x="500" y="40" font-family="Arial, sans-serif" font-size="24" font-weight="bold" text-anchor="middle">PolkaDeploy Architecture</text>
  
  <!-- Developer Tools Section -->
  <rect x="50" y="70" width="200" height="140" fill="#e6f2ff" stroke="#0066cc" stroke-width="2" rx="10" />
  <text x="150" y="90" font-family="Arial, sans-serif" font-size="16" font-weight="bold" text-anchor="middle">Developer Tools</text>
  
  <rect x="70" y="100" width="160" height="30" fill="#ffffff" stroke="#0066cc" stroke-width="1" rx="5" />
  <text x="150" y="120" font-family="Arial, sans-serif" font-size="12" text-anchor="middle">PolkaDeploy CLI</text>
  
  <rect x="70" y="135" width="160" height="30" fill="#ffffff" stroke="#0066cc" stroke-width="1" rx="5" />
  <text x="150" y="155" font-family="Arial, sans-serif" font-size="12" text-anchor="middle">IDE Plugins</text>
  
  <rect x="70" y="170" width="160" height="30" fill="#ffffff" stroke="#0066cc" stroke-width="1" rx="5" />
  <text x="150" y="190" font-family="Arial, sans-serif" font-size="12" text-anchor="middle">Local Dev Environment</text>
  
  <!-- Core Services Section -->
  <rect x="50" y="230" width="200" height="240" fill="#e6ffe6" stroke="#009900" stroke-width="2" rx="10" />
  <text x="150" y="250" font-family="Arial, sans-serif" font-size="16" font-weight="bold" text-anchor="middle">Core Services</text>
  
  <rect x="70" y="260" width="160" height="30" fill="#ffffff" stroke="#009900" stroke-width="1" rx="5" />
  <text x="150" y="280" font-family="Arial, sans-serif" font-size="12" text-anchor="middle">Environment Manager</text>
  
  <rect x="70" y="295" width="160" height="30" fill="#ffffff" stroke="#009900" stroke-width="1" rx="5" />
  <text x="150" y="315" font-family="Arial, sans-serif" font-size="12" text-anchor="middle">Build System</text>
  
  <rect x="70" y="330" width="160" height="30" fill="#ffffff" stroke="#009900" stroke-width="1" rx="5" />
  <text x="150" y="350" font-family="Arial, sans-serif" font-size="12" text-anchor="middle">Test Framework</text>
  
  <rect x="70" y="365" width="160" height="30" fill="#ffffff" stroke="#009900" stroke-width="1" rx="5" />
  <text x="150" y="385" font-family="Arial, sans-serif" font-size="12" text-anchor="middle">Security Scanner</text>
  
  <rect x="70" y="400" width="160" height="30" fill="#ffffff" stroke="#009900" stroke-width="1" rx="5" />
  <text x="150" y="420" font-family="Arial, sans-serif" font-size="12" text-anchor="middle">Deployment Manager</text>
  
  <rect x="70" y="435" width="160" height="30" fill="#ffffff" stroke="#009900" stroke-width="1" rx="5" />
  <text x="150" y="455" font-family="Arial, sans-serif" font-size="12" text-anchor="middle">Monitoring System</text>
  
  <!-- Infrastructure Layers Section -->
  <rect x="50" y="490" width="200" height="175" fill="#ffe6e6" stroke="#cc0000" stroke-width="2" rx="10" />
  <text x="150" y="510" font-family="Arial, sans-serif" font-size="16" font-weight="bold" text-anchor="middle">Infrastructure Layers</text>
  
  <rect x="70" y="520" width="160" height="30" fill="#ffffff" stroke="#cc0000" stroke-width="1" rx="5" />
  <text x="150" y="540" font-family="Arial, sans-serif" font-size="12" text-anchor="middle">Terraform Modules</text>
  
  <rect x="70" y="555" width="160" height="30" fill="#ffffff" stroke="#cc0000" stroke-width="1" rx="5" />
  <text x="150" y="575" font-family="Arial, sans-serif" font-size="12" text-anchor="middle">Docker Images</text>
  
  <rect x="70" y="590" width="160" height="30" fill="#ffffff" stroke="#cc0000" stroke-width="1" rx="5" />
  <text x="150" y="610" font-family="Arial, sans-serif" font-size="12" text-anchor="middle">Kubernetes Operators</text>
  
  <rect x="70" y="625" width="160" height="30" fill="#ffffff" stroke="#cc0000" stroke-width="1" rx="5" />
  <text x="150" y="645" font-family="Arial, sans-serif" font-size="12" text-anchor="middle">Cloud Provider Integrations</text>
  
  <!-- CI/CD Pipeline Section -->
  <rect x="300" y="70" width="200" height="140" fill="#fff2e6" stroke="#ff6600" stroke-width="2" rx="10" />
  <text x="400" y="90" font-family="Arial, sans-serif" font-size="16" font-weight="bold" text-anchor="middle">CI/CD Pipeline</text>
  
  <rect x="320" y="100" width="160" height="30" fill="#ffffff" stroke="#ff6600" stroke-width="1" rx="5" />
  <text x="400" y="120" font-family="Arial, sans-serif" font-size="12" text-anchor="middle">GitHub Actions</text>
  
  <rect x="320" y="135" width="160" height="30" fill="#ffffff" stroke="#ff6600" stroke-width="1" rx="5" />
  <text x="400" y="155" font-family="Arial, sans-serif" font-size="12" text-anchor="middle">GitLab CI</text>
  
  <rect x="320" y="170" width="160" height="30" fill="#ffffff" stroke="#ff6600" stroke-width="1" rx="5" />
  <text x="400" y="190" font-family="Arial, sans-serif" font-size="12" text-anchor="middle">Jenkins Integration</text>
  
  <!-- Blockchain Environments Section -->
  <rect x="550" y="70" width="200" height="175" fill="#e6e6ff" stroke="#3333cc" stroke-width="2" rx="10" />
  <text x="650" y="90" font-family="Arial, sans-serif" font-size="16" font-weight="bold" text-anchor="middle">Blockchain Environments</text>
  
  <rect x="570" y="100" width="160" height="30" fill="#ffffff" stroke="#3333cc" stroke-width="1" rx="5" />
  <text x="650" y="120" font-family="Arial, sans-serif" font-size="12" text-anchor="middle">Testnet Nodes</text>
  
  <rect x="570" y="135" width="160" height="30" fill="#ffffff" stroke="#3333cc" stroke-width="1" rx="5" />
  <text x="650" y="155" font-family="Arial, sans-serif" font-size="12" text-anchor="middle">Relay Chain Nodes</text>
  
  <rect x="570" y="170" width="160" height="30" fill="#ffffff" stroke="#3333cc" stroke-width="1" rx="5" />
  <text x="650" y="190" font-family="Arial, sans-serif" font-size="12" text-anchor="middle">Parachain Nodes</text>
  
  <rect x="570" y="205" width="160" height="30" fill="#ffffff" stroke="#3333cc" stroke-width="1" rx="5" />
  <text x="650" y="225" font-family="Arial, sans-serif" font-size="12" text-anchor="middle">dApp Infrastructure</text>
  
  <!-- Monitoring & Alerts Section -->
  <rect x="550" y="270" width="200" height="175" fill="#f2e6ff" stroke="#6600cc" stroke-width="2" rx="10" />
  <text x="650" y="290" font-family="Arial, sans-serif" font-size="16" font-weight="bold" text-anchor="middle">Monitoring &amp; Alerts</text>
  
  <rect x="570" y="300" width="160" height="30" fill="#ffffff" stroke="#6600cc" stroke-width="1" rx="5" />
  <text x="650" y="320" font-family="Arial, sans-serif" font-size="12" text-anchor="middle">Prometheus</text>
  
  <rect x="570" y="335" width="160" height="30" fill="#ffffff" stroke="#6600cc" stroke-width="1" rx="5" />
  <text x="650" y="355" font-family="Arial, sans-serif" font-size="12" text-anchor="middle">Grafana Dashboards</text>
  
  <rect x="570" y="370" width="160" height="30" fill="#ffffff" stroke="#6600cc" stroke-width="1" rx="5" />
  <text x="650" y="390" font-family="Arial, sans-serif" font-size="12" text-anchor="middle">Alert Manager</text>
  
  <rect x="570" y="405" width="160" height="30" fill="#ffffff" stroke="#6600cc" stroke-width="1" rx="5" />
  <text x="650" y="425" font-family="Arial, sans-serif" font-size="12" text-anchor="middle">Blockchain Analytics</text>
  
  <!-- Connections -->
  <!-- CLI to Core Services -->
  <path d="M 150 130 L 280 130 L 280 275 L 230 275" fill="none" stroke="#666666" stroke-width="1.5" />
  <path d="M 150 130 L 280 130 L 280 310 L 230 310" fill="none" stroke="#666666" stroke-width="1.5" />
  <path d="M 150 130 L 280 130 L 280 415 L 230 415" fill="none" stroke="#666666" stroke-width="1.5" />
  <path d="M 150 130 L 280 130 L 280 450 L 230 450" fill="none" stroke="#666666" stroke-width="1.5" />
  
  <!-- IDE to Services -->
  <path d="M 150 155 L 250 155 L 250 190 L 230 190" fill="none" stroke="#666666" stroke-width="1.5" />
  <path d="M 150 155 L 260 155 L 260 310 L 230 310" fill="none" stroke="#666666" stroke-width="1.5" />
  
  <!-- Environment Manager connections -->
  <path d="M 150 275 L 180 275 L 180 190 L 230 190" fill="none" stroke="#666666" stroke-width="1.5" />
  <path d="M 150 275 L 40 275 L 40 535 L 70 535" fill="none" stroke="#666666" stroke-width="1.5" />
  <path d="M 150 275 L 30 275 L 30 570 L 70 570" fill="none" stroke="#666666" stroke-width="1.5" />
  
  <!-- Build System connections -->
  <path d="M 150 310 L 170 310 L 170 345 L 150 345" fill="none" stroke="#666666" stroke-width="1.5" />
  <path d="M 150 310 L 170 310 L 170 380 L 150 380" fill="none" stroke="#666666" stroke-width="1.5" />
  
  <!-- Test Framework connections -->
  <path d="M 230 345 L 500 345 L 500 155 L 570 155" fill="none" stroke="#666666" stroke-width="1.5" />
  <path d="M 230 345 L 500 345 L 500 190 L 570 190" fill="none" stroke="#666666" stroke-width="1.5" />
  <path d="M 230 345 L 500 345 L 500 225 L 570 225" fill="none" stroke="#666666" stroke-width="1.5" />
  
  <!-- CI/CD connections -->
  <path d="M 400 120 L 420 120 L 420 310 L 230 310" fill="none" stroke="#666666" stroke-width="1.5" />
  <path d="M 400 120 L 430 120 L 430 345 L 230 345" fill="none" stroke="#666666" stroke-width="1.5" />
  <path d="M 400 120 L 440 120 L 440 380 L 230 380" fill="none" stroke="#666666" stroke-width="1.5" />
  <path d="M 400 120 L 450 120 L 450 415 L 230 415" fill="none" stroke="#666666" stroke-width="1.5" />
  
  <path d="M 400 155 L 420 155 L 420 310 L 230 310" fill="none" stroke="#666666" stroke-width="1.5" />
  <path d="M 400 155 L 430 155 L 430 345 L 230 345" fill="none" stroke="#666666" stroke-width="1.5" />
  <path d="M 400 155 L 440 155 L 440 380 L 230 380" fill="none" stroke="#666666" stroke-width="1.5" />
  <path d="M 400 155 L 450 155 L 450 415 L 230 415" fill="none" stroke="#666666" stroke-width="1.5" />
  
  <path d="M 400 190 L 420 190 L 420 310 L 230 310" fill="none" stroke="#666666" stroke-width="1.5" />
  <path d="M 400 190 L 430 190 L 430 345 L 230 345" fill="none" stroke="#666666" stroke-width="1.5" />
  <path d="M 400 190 L 440 190 L 440 380 L 230 380" fill="none" stroke="#666666" stroke-width="1.5" />
  <path d="M 400 190 L 450 190 L 450 415 L 230 415" fill="none" stroke="#666666" stroke-width="1.5" />
  
  <!-- Deployment Manager connections -->
  <path d="M 150 415 L 20 415 L 20 535 L 70 535" fill="none" stroke="#666666" stroke-width="1.5" />
  <path d="M 150 415 L 15 415 L 15 605 L 70 605" fill="none" stroke="#666666" stroke-width="1.5" />
  <path d="M 150 415 L 10 415 L 10 570 L 70 570" fill="none" stroke="#666666" stroke-width="1.5" />
  <path d="M 150 415 L 5 415 L 5 640 L 70 640" fill="none" stroke="#666666" stroke-width="1.5" />
  
  <!-- Infrastructure to Blockchain environments -->
  <path d="M 230 535 L 520 535 L 520 120 L 570 120" fill="none" stroke="#666666" stroke-width="1.5" />
  <path d="M 230 535 L 520 535 L 520 155 L 570 155" fill="none" stroke="#666666" stroke-width="1.5" />
  <path d="M 230 535 L 520 535 L 520 190 L 570 190" fill="none" stroke="#666666" stroke-width="1.5" />
  
  <path d="M 230 605 L 510 605 L 510 120 L 570 120" fill="none" stroke="#666666" stroke-width="1.5" />
  <path d="M 230 605 L 510 605 L 510 155 L 570 155" fill="none" stroke="#666666" stroke-width="1.5" />
  <path d="M 230 605 L 510 605 L 510 190 L 570 190" fill="none" stroke="#666666" stroke-width="1.5" />
  <path d="M 230 605 L 510 605 L 510 225 L 570 225" fill="none" stroke="#666666" stroke-width="1.5" />
  
  <!-- Monitoring System connections -->
  <path d="M 150 450 L 530 450 L 530 320 L 570 320" fill="none" stroke="#666666" stroke-width="1.5" />
  <path d="M 150 450 L 530 450 L 530 355 L 570 355" fill="none" stroke="#666666" stroke-width="1.5" />
  <path d="M 150 450 L 530 450 L 530 390 L 570 390" fill="none" stroke="#666666" stroke-width="1.5" />
  <path d="M 150 450 L 530 450 L 530 425 L 570 425" fill="none" stroke="#666666" stroke-width="1.5" />
  
  <!-- Prometheus connections -->
  <path d="M 650 320 L 800 320 L 800 120 L 730 120" fill="none" stroke="#666666" stroke-width="1.5" />
  <path d="M 650 320 L 800 320 L 800 155 L 730 155" fill="none" stroke="#666666" stroke-width="1.5" />
  <path d="M 650 320 L 800 320 L 800 190 L 730 190" fill="none" stroke="#666666" stroke-width="1.5" />
  <path d="M 650 320 L 800 320 L 800 225 L 730 225" fill="none" stroke="#666666" stroke-width="1.5" />
  
  <!-- Alert Manager connections -->
  <path d="M 650 390 L 820 390 L 820 120 L 730 120" fill="none" stroke="#666666" stroke-width="1.5" />
  <path d="M 650 390 L 820 390 L 820 155 L 730 155" fill="none" stroke="#666666" stroke-width="1.5" />
  <path d="M 650 390 L 820 390 L 820 190 L 730 190" fill="none" stroke="#666666" stroke-width="1.5" />
  <path d="M 650 390 L 820 390 L 820 225 L 730 225" fill="none" stroke="#666666" stroke-width="1.5" />
  
  <!-- Legend -->
  <rect x="700" y="490" width="250" height="175" fill="#f8f9fa" stroke="#333333" stroke-width="1" rx="5" />
  <text x="825" y="510" font-family="Arial, sans-serif" font-size="16" font-weight="bold" text-anchor="middle">Legend</text>
  
  <rect x="710" y="520" width="20" height="20" fill="#e6f2ff" stroke="#0066cc" stroke-width="1" />
  <text x="740" y="535" font-family="Arial, sans-serif" font-size="12" text-anchor="start">Developer Tools</text>
  
  <rect x="710" y="545" width="20" height="20" fill="#e6ffe6" stroke="#009900" stroke-width="1" />
  <text x="740" y="560" font-family="Arial, sans-serif" font-size="12" text-anchor="start">Core Services</text>
  
  <rect x="710" y="570" width="20" height="20" fill="#ffe6e6" stroke="#cc0000" stroke-width="1" />
  <text x="740" y="585" font-family="Arial, sans-serif" font-size="12" text-anchor="start">Infrastructure Layers</text>
  
  <rect x="710" y="595" width="20" height="20" fill="#fff2e6" stroke="#ff6600" stroke-width="1" />
  <text x="740" y="610" font-family="Arial, sans-serif" font-size="12" text-anchor="start">CI/CD Pipeline</text>
  
  <rect x="710" y="620" width="20" height="20" fill="#e6e6ff" stroke="#3333cc" stroke-width="1" />
  <text x="740" y="635" font-family="Arial, sans-serif" font-size="12" text-anchor="start">Blockchain Environments</text>
  
  <rect x="710" y="645" width="20" height="20" fill="#f2e6ff" stroke="#6600cc" stroke-width="1" />
  <text x="740" y="660" font-family="Arial, sans-serif" font-size="12" text-anchor="start">Monitoring &amp; Alerts</text>
  
  <!-- Footer -->
  <text x="500" y="780" font-family="Arial, sans-serif" font-size="14" font-weight="bold" text-anchor="middle">PolkaDeploy: DevOps Infrastructure Toolkit for Polkadot</text>
</svg>